<svg width="82" height="55" viewBox="0 0 82 55" fill="#191919" xmlns="http://www.w3.org/2000/svg">
<path d="M69.1193 12.8906L61.6329 42.5971H60.3728L52.8864 12.8906H40.9897L50.2921 49.783C50.9222 52.3388 53.257 54.1538 55.8884 54.1538H66.1544C68.7857 54.1538 71.1206 52.3759 71.7506 49.783L81.053 12.8906H69.1193Z"/>
<path d="M20.569 13.0012C17.3447 13.0012 14.2686 13.7421 11.5261 15.0755V0H0V33.5588C0 44.9302 9.22827 54.1163 20.569 54.1163C31.9468 54.1163 41.1381 44.8932 41.1381 33.5588C41.1381 22.1873 31.9468 13.0012 20.569 13.0012ZM20.569 42.5596C15.5658 42.5596 11.5261 38.5222 11.5261 33.5217C11.5261 28.5212 15.5658 24.4838 20.569 24.4838C25.5723 24.4838 29.612 28.5212 29.612 33.5217C29.612 38.5222 25.5723 42.5596 20.569 42.5596Z"/>
</svg>
